<svg width="100" height="119" viewBox="0 0 100 119" fill="none" xmlns="http://www.w3.org/2000/svg">
<path d="M76.2682 60.6166H22.6848C18.5519 60.6166 14.5882 58.9748 11.6657 56.0524C8.7433 53.1299 7.10149 49.1662 7.10149 45.0333V15.8666C7.07948 13.8042 7.46601 11.7579 8.23877 9.84563C9.01154 7.93337 10.1552 6.19302 11.6039 4.72496C13.0526 3.2569 14.7776 2.09018 16.6795 1.29209C18.5813 0.493999 20.6223 0.0803338 22.6848 0.0749512H76.2682C80.3977 0.0859488 84.355 1.73129 87.2751 4.65135C90.1952 7.57141 91.8405 11.5287 91.8515 15.6583V45.0333C91.8515 47.0797 91.4484 49.1061 90.6653 50.9968C89.8821 52.8874 88.7343 54.6053 87.2872 56.0524C85.8402 57.4994 84.1223 58.6473 82.2317 59.4304C80.341 60.2135 78.3146 60.6166 76.2682 60.6166ZM22.6848 4.24162C19.6569 4.24162 16.7531 5.44444 14.612 7.58548C12.471 9.72652 11.2682 12.6304 11.2682 15.6583V45.0333C11.2682 48.0612 12.471 50.965 14.612 53.1061C16.7531 55.2471 19.6569 56.45 22.6848 56.45H76.2682C79.2961 56.45 82.1999 55.2471 84.341 53.1061C86.482 50.965 87.6848 48.0612 87.6848 45.0333V15.8666C87.7125 14.3499 87.4377 12.8429 86.8763 11.4336C86.315 10.0244 85.4784 8.7411 84.4155 7.6588C83.3526 6.5765 82.0847 5.71688 80.6858 5.13015C79.2869 4.54343 77.7851 4.24137 76.2682 4.24162H22.6848Z" fill="#FF4343"/>
<path d="M89.7673 74.7834H9.18398C8.63479 74.7727 8.11106 74.5498 7.72264 74.1614C7.33423 73.773 7.11131 73.2492 7.10065 72.7C7.10065 72.1475 7.32014 71.6176 7.71084 71.2269C8.10154 70.8362 8.63145 70.6167 9.18398 70.6167H89.7673C90.3198 70.6167 90.8498 70.8362 91.2404 71.2269C91.6311 71.6176 91.8506 72.1475 91.8506 72.7C91.8506 73.2526 91.6311 73.7825 91.2404 74.1732C90.8498 74.5639 90.3198 74.7834 89.7673 74.7834Z" fill="#FF4343"/>
<path d="M49.4206 106.742C48.8681 106.742 48.3382 106.522 47.9475 106.131C47.5568 105.741 47.3373 105.211 47.3373 104.658V88.5333C47.3373 87.9807 47.5568 87.4508 47.9475 87.0601C48.3382 86.6694 48.8681 86.45 49.4206 86.45C49.9732 86.45 50.5031 86.6694 50.8938 87.0601C51.2845 87.4508 51.504 87.9807 51.504 88.5333V104.658C51.504 105.211 51.2845 105.741 50.8938 106.131C50.5031 106.522 49.9732 106.742 49.4206 106.742Z" fill="#FF4343"/>
<path d="M73.4936 106.742H25.1603C24.6078 106.742 24.0779 106.522 23.6872 106.132C23.2965 105.741 23.077 105.211 23.077 104.659C23.077 104.106 23.2965 103.576 23.6872 103.185C24.0779 102.795 24.6078 102.575 25.1603 102.575H73.4936C74.0462 102.575 74.5761 102.795 74.9668 103.185C75.3575 103.576 75.577 104.106 75.577 104.659C75.577 105.211 75.3575 105.741 74.9668 106.132C74.5761 106.522 74.0462 106.742 73.4936 106.742Z" fill="#FF4343"/>
</svg>
