<svg width="198" height="19" viewBox="0 0 198 19" fill="none" xmlns="http://www.w3.org/2000/svg">
<path d="M13.4614 18V9.024L10.6054 15.336H8.10938L5.25338 9.024V18H0.573375V0.959999H5.68538L9.35738 8.976L13.0534 0.959999H18.1414V18H13.4614ZM28.7378 18.144C27.4418 18.144 26.2658 17.904 25.2098 17.424C24.1538 16.928 23.2418 16.272 22.4738 15.456C21.7218 14.624 21.1378 13.696 20.7218 12.672C20.3218 11.632 20.1218 10.56 20.1218 9.456C20.1218 8.32 20.3378 7.24 20.7698 6.216C21.2018 5.192 21.8018 4.28 22.5698 3.48C23.3538 2.664 24.2738 2.024 25.3298 1.56C26.4018 1.096 27.5698 0.863999 28.8338 0.863999C30.1298 0.863999 31.3058 1.112 32.3618 1.608C33.4178 2.088 34.3218 2.744 35.0738 3.576C35.8258 4.408 36.4018 5.344 36.8018 6.384C37.2178 7.408 37.4258 8.464 37.4258 9.552C37.4258 10.672 37.2098 11.744 36.7778 12.768C36.3618 13.792 35.7618 14.712 34.9778 15.528C34.2098 16.328 33.2978 16.968 32.2418 17.448C31.1858 17.912 30.0178 18.144 28.7378 18.144ZM24.8738 9.504C24.8738 10.256 25.0098 10.976 25.2818 11.664C25.5698 12.352 26.0018 12.912 26.5778 13.344C27.1698 13.776 27.9058 13.992 28.7858 13.992C29.6978 13.992 30.4338 13.768 30.9938 13.32C31.5698 12.872 31.9938 12.304 32.2657 11.616C32.5378 10.912 32.6738 10.192 32.6738 9.456C32.6738 8.688 32.5298 7.968 32.2418 7.296C31.9538 6.624 31.5218 6.08 30.9458 5.664C30.3698 5.232 29.6418 5.016 28.7618 5.016C27.8658 5.016 27.1298 5.24 26.5538 5.688C25.9778 6.12 25.5538 6.68 25.2818 7.368C25.0098 8.04 24.8738 8.752 24.8738 9.504ZM39.4093 18V0.959999H45.9613C47.8493 0.959999 49.4253 1.344 50.6893 2.112C51.9693 2.864 52.9293 3.888 53.5693 5.184C54.2253 6.464 54.5533 7.888 54.5533 9.456C54.5533 11.184 54.1933 12.688 53.4733 13.968C52.7693 15.248 51.7693 16.24 50.4733 16.944C49.1933 17.648 47.6893 18 45.9613 18H39.4093ZM49.8013 9.456C49.8013 8.128 49.4573 7.064 48.7693 6.264C48.0973 5.448 47.1613 5.04 45.9613 5.04H44.0893V13.92H45.9613C47.1933 13.92 48.1373 13.496 48.7933 12.648C49.4653 11.8 49.8013 10.736 49.8013 9.456ZM68.733 13.92V18H56.589V0.959999H68.517V5.04H61.269V7.44H67.461V11.232H61.269V13.92H68.733ZM70.9093 18V0.959999H78.7333C79.5653 0.959999 80.3333 1.128 81.0373 1.464C81.7413 1.8 82.3493 2.256 82.8613 2.832C83.3733 3.392 83.7653 4.024 84.0373 4.728C84.3253 5.432 84.4693 6.144 84.4693 6.864C84.4693 7.84 84.2533 8.76 83.8213 9.624C83.3893 10.488 82.7893 11.192 82.0213 11.736L85.6213 18H80.4853L77.4853 12.768H75.5893V18H70.9093ZM75.5893 8.688H78.5413C78.8293 8.688 79.0933 8.528 79.3333 8.208C79.5893 7.888 79.7173 7.44 79.7173 6.864C79.7173 6.272 79.5733 5.824 79.2853 5.52C78.9973 5.2 78.7093 5.04 78.4213 5.04H75.5893V8.688ZM91.7846 9.624V18H87.1046V0.959999H90.7526L97.5926 9.624V0.959999H102.273V18H98.5526L91.7846 9.624ZM110.589 18V0.959999H117.141C119.029 0.959999 120.605 1.344 121.869 2.112C123.149 2.864 124.109 3.888 124.749 5.184C125.405 6.464 125.733 7.888 125.733 9.456C125.733 11.184 125.373 12.688 124.653 13.968C123.949 15.248 122.949 16.24 121.653 16.944C120.373 17.648 118.869 18 117.141 18H110.589ZM120.981 9.456C120.981 8.128 120.637 7.064 119.949 6.264C119.277 5.448 118.341 5.04 117.141 5.04H115.269V13.92H117.141C118.373 13.92 119.317 13.496 119.973 12.648C120.645 11.8 120.981 10.736 120.981 9.456ZM139.913 13.92V18H127.769V0.959999H139.697V5.04H132.449V7.44H138.641V11.232H132.449V13.92H139.913ZM152.409 6.528C152.409 6.528 152.273 6.448 152.001 6.288C151.729 6.128 151.369 5.952 150.921 5.76C150.473 5.552 149.985 5.368 149.457 5.208C148.929 5.048 148.409 4.968 147.897 4.968C147.497 4.968 147.169 5.032 146.913 5.16C146.657 5.288 146.529 5.504 146.529 5.808C146.529 6.256 146.809 6.576 147.369 6.768C147.945 6.944 148.721 7.192 149.697 7.512C150.753 7.832 151.665 8.2 152.433 8.616C153.201 9.032 153.793 9.568 154.209 10.224C154.625 10.864 154.833 11.72 154.833 12.792C154.833 13.816 154.649 14.68 154.281 15.384C153.913 16.072 153.417 16.624 152.793 17.04C152.169 17.456 151.473 17.76 150.705 17.952C149.937 18.128 149.153 18.216 148.353 18.216C147.537 18.216 146.681 18.136 145.785 17.976C144.905 17.8 144.049 17.568 143.217 17.28C142.385 16.976 141.625 16.624 140.937 16.224L142.953 12.12C142.953 12.12 143.113 12.216 143.433 12.408C143.753 12.6 144.177 12.816 144.705 13.056C145.233 13.296 145.817 13.512 146.457 13.704C147.113 13.896 147.769 13.992 148.425 13.992C148.937 13.992 149.289 13.928 149.481 13.8C149.689 13.656 149.793 13.472 149.793 13.248C149.793 12.912 149.617 12.656 149.265 12.48C148.913 12.288 148.449 12.112 147.873 11.952C147.313 11.776 146.689 11.576 146.001 11.352C144.497 10.84 143.401 10.232 142.713 9.528C142.025 8.808 141.681 7.824 141.681 6.576C141.681 5.312 141.977 4.256 142.569 3.408C143.161 2.56 143.937 1.92 144.897 1.488C145.873 1.04 146.921 0.816 148.041 0.816C148.873 0.816 149.673 0.92 150.441 1.128C151.225 1.32 151.953 1.56 152.625 1.848C153.313 2.136 153.913 2.408 154.425 2.664L152.409 6.528ZM156.902 18V0.959999H161.582V18H156.902ZM171.887 18.12C170.783 18.12 169.727 17.928 168.719 17.544C167.727 17.144 166.847 16.568 166.079 15.816C165.311 15.048 164.703 14.128 164.255 13.056C163.823 11.968 163.607 10.728 163.607 9.336C163.607 8.136 163.831 7.024 164.279 6C164.727 4.976 165.343 4.08 166.127 3.312C166.927 2.528 167.855 1.92 168.911 1.488C169.967 1.056 171.111 0.839999 172.343 0.839999C173.879 0.839999 175.271 1.176 176.519 1.848C177.767 2.504 178.695 3.408 179.303 4.56L175.823 7.224C175.487 6.552 174.983 6.016 174.311 5.616C173.639 5.2 172.927 4.992 172.175 4.992C171.439 4.992 170.783 5.184 170.207 5.568C169.631 5.952 169.175 6.488 168.839 7.176C168.519 7.848 168.359 8.624 168.359 9.504C168.359 10.832 168.719 11.912 169.439 12.744C170.175 13.56 171.127 13.968 172.295 13.968C173.623 13.968 174.823 13.408 175.895 12.288H172.943V8.928H179.951V18H176.087V16.584C174.871 17.608 173.471 18.12 171.887 18.12ZM186.941 9.624V18H182.261V0.959999H185.909L192.749 9.624V0.959999H197.429V18H193.709L186.941 9.624Z" fill="#2D3033"/>
</svg>
