<svg width="370" height="72" viewBox="0 0 370 72" fill="none" xmlns="http://www.w3.org/2000/svg">
<path d="M56.4913 44V26.96H63.0433C64.9313 26.96 66.5073 27.344 67.7713 28.112C69.0513 28.864 70.0113 29.888 70.6513 31.184C71.3073 32.464 71.6353 33.888 71.6353 35.456C71.6353 37.184 71.2753 38.688 70.5553 39.968C69.8513 41.248 68.8513 42.24 67.5553 42.944C66.2753 43.648 64.7713 44 63.0433 44H56.4913ZM66.8833 35.456C66.8833 34.128 66.5393 33.064 65.8513 32.264C65.1793 31.448 64.2433 31.04 63.0433 31.04H61.1713V39.92H63.0433C64.2753 39.92 65.2193 39.496 65.8753 38.648C66.5473 37.8 66.8833 36.736 66.8833 35.456ZM81.351 44.144C80.055 44.144 78.879 43.904 77.823 43.424C76.767 42.928 75.855 42.272 75.087 41.456C74.335 40.624 73.751 39.696 73.335 38.672C72.935 37.632 72.735 36.56 72.735 35.456C72.735 34.32 72.951 33.24 73.383 32.216C73.815 31.192 74.415 30.28 75.183 29.48C75.967 28.664 76.887 28.024 77.943 27.56C79.015 27.096 80.183 26.864 81.447 26.864C82.743 26.864 83.919 27.112 84.975 27.608C86.031 28.088 86.935 28.744 87.687 29.576C88.439 30.408 89.015 31.344 89.415 32.384C89.831 33.408 90.039 34.464 90.039 35.552C90.039 36.672 89.823 37.744 89.391 38.768C88.975 39.792 88.375 40.712 87.591 41.528C86.823 42.328 85.911 42.968 84.855 43.448C83.799 43.912 82.631 44.144 81.351 44.144ZM77.487 35.504C77.487 36.256 77.623 36.976 77.895 37.664C78.183 38.352 78.615 38.912 79.191 39.344C79.783 39.776 80.519 39.992 81.399 39.992C82.311 39.992 83.047 39.768 83.607 39.32C84.183 38.872 84.607 38.304 84.879 37.616C85.151 36.912 85.287 36.192 85.287 35.456C85.287 34.688 85.143 33.968 84.855 33.296C84.567 32.624 84.135 32.08 83.559 31.664C82.983 31.232 82.255 31.016 81.375 31.016C80.479 31.016 79.743 31.24 79.167 31.688C78.591 32.12 78.167 32.68 77.895 33.368C77.623 34.04 77.487 34.752 77.487 35.504ZM96.6715 26.96H100.967L102.527 32.216L104.111 26.96H108.407L105.527 35.096L106.751 38.576L110.423 26.96H115.511L109.079 44H105.023L102.527 37.904L100.055 44H95.9995L89.5675 26.96H94.6315L98.3275 38.576L99.5035 35.096L96.6715 26.96ZM121.359 35.624V44H116.679V26.96H120.327L127.167 35.624V26.96H131.847V44H128.127L121.359 35.624ZM134.773 44V26.96H139.453V39.92H147.181V44H134.773ZM156.281 44.144C154.985 44.144 153.809 43.904 152.753 43.424C151.697 42.928 150.785 42.272 150.017 41.456C149.265 40.624 148.681 39.696 148.265 38.672C147.865 37.632 147.665 36.56 147.665 35.456C147.665 34.32 147.881 33.24 148.313 32.216C148.745 31.192 149.345 30.28 150.113 29.48C150.897 28.664 151.817 28.024 152.873 27.56C153.945 27.096 155.113 26.864 156.377 26.864C157.673 26.864 158.849 27.112 159.905 27.608C160.961 28.088 161.865 28.744 162.617 29.576C163.369 30.408 163.945 31.344 164.345 32.384C164.761 33.408 164.969 34.464 164.969 35.552C164.969 36.672 164.753 37.744 164.321 38.768C163.905 39.792 163.305 40.712 162.521 41.528C161.753 42.328 160.841 42.968 159.785 43.448C158.729 43.912 157.561 44.144 156.281 44.144ZM152.417 35.504C152.417 36.256 152.553 36.976 152.825 37.664C153.113 38.352 153.545 38.912 154.121 39.344C154.713 39.776 155.449 39.992 156.329 39.992C157.241 39.992 157.977 39.768 158.537 39.32C159.113 38.872 159.537 38.304 159.809 37.616C160.081 36.912 160.217 36.192 160.217 35.456C160.217 34.688 160.073 33.968 159.785 33.296C159.497 32.624 159.065 32.08 158.489 31.664C157.913 31.232 157.185 31.016 156.305 31.016C155.409 31.016 154.673 31.24 154.097 31.688C153.521 32.12 153.097 32.68 152.825 33.368C152.553 34.04 152.417 34.752 152.417 35.504ZM170.185 26.96H175.417L180.841 44H176.089L175.057 40.664H170.521L169.513 44H164.737L170.185 26.96ZM174.313 37.544L172.801 31.544L171.217 37.544H174.313ZM182.257 44V26.96H188.809C190.697 26.96 192.273 27.344 193.537 28.112C194.817 28.864 195.777 29.888 196.417 31.184C197.073 32.464 197.401 33.888 197.401 35.456C197.401 37.184 197.041 38.688 196.321 39.968C195.617 41.248 194.617 42.24 193.321 42.944C192.041 43.648 190.537 44 188.809 44H182.257ZM192.649 35.456C192.649 34.128 192.305 33.064 191.617 32.264C190.945 31.448 190.009 31.04 188.809 31.04H186.937V39.92H188.809C190.041 39.92 190.985 39.496 191.641 38.648C192.313 37.8 192.649 36.736 192.649 35.456ZM204.827 44V26.96H216.515V31.04H209.507V33.872H215.219V37.664H209.507V44H204.827ZM225.82 44.144C224.524 44.144 223.348 43.904 222.292 43.424C221.236 42.928 220.324 42.272 219.556 41.456C218.804 40.624 218.22 39.696 217.804 38.672C217.404 37.632 217.204 36.56 217.204 35.456C217.204 34.32 217.42 33.24 217.852 32.216C218.284 31.192 218.884 30.28 219.652 29.48C220.436 28.664 221.356 28.024 222.412 27.56C223.484 27.096 224.652 26.864 225.916 26.864C227.212 26.864 228.388 27.112 229.444 27.608C230.5 28.088 231.404 28.744 232.156 29.576C232.908 30.408 233.484 31.344 233.884 32.384C234.3 33.408 234.508 34.464 234.508 35.552C234.508 36.672 234.292 37.744 233.86 38.768C233.444 39.792 232.844 40.712 232.06 41.528C231.292 42.328 230.38 42.968 229.324 43.448C228.268 43.912 227.1 44.144 225.82 44.144ZM221.956 35.504C221.956 36.256 222.092 36.976 222.364 37.664C222.652 38.352 223.084 38.912 223.66 39.344C224.252 39.776 224.988 39.992 225.868 39.992C226.78 39.992 227.516 39.768 228.076 39.32C228.652 38.872 229.076 38.304 229.348 37.616C229.62 36.912 229.756 36.192 229.756 35.456C229.756 34.688 229.612 33.968 229.324 33.296C229.036 32.624 228.604 32.08 228.028 31.664C227.452 31.232 226.724 31.016 225.844 31.016C224.948 31.016 224.212 31.24 223.636 31.688C223.06 32.12 222.636 32.68 222.364 33.368C222.092 34.04 221.956 34.752 221.956 35.504ZM236.491 44V26.96H244.315C245.147 26.96 245.915 27.128 246.619 27.464C247.323 27.8 247.931 28.256 248.443 28.832C248.955 29.392 249.347 30.024 249.619 30.728C249.907 31.432 250.051 32.144 250.051 32.864C250.051 33.84 249.835 34.76 249.403 35.624C248.971 36.488 248.371 37.192 247.603 37.736L251.203 44H246.067L243.067 38.768H241.171V44H236.491ZM241.171 34.688H244.123C244.411 34.688 244.675 34.528 244.915 34.208C245.171 33.888 245.299 33.44 245.299 32.864C245.299 32.272 245.155 31.824 244.867 31.52C244.579 31.2 244.291 31.04 244.003 31.04H241.171V34.688ZM258.077 44V26.96H269.765V31.04H262.757V33.872H268.469V37.664H262.757V44H258.077ZM271.601 44V26.96H279.425C280.257 26.96 281.025 27.128 281.729 27.464C282.433 27.8 283.041 28.256 283.553 28.832C284.065 29.392 284.457 30.024 284.729 30.728C285.017 31.432 285.161 32.144 285.161 32.864C285.161 33.84 284.945 34.76 284.513 35.624C284.081 36.488 283.481 37.192 282.713 37.736L286.313 44H281.177L278.177 38.768H276.281V44H271.601ZM276.281 34.688H279.233C279.521 34.688 279.785 34.528 280.025 34.208C280.281 33.888 280.409 33.44 280.409 32.864C280.409 32.272 280.265 31.824 279.977 31.52C279.689 31.2 279.401 31.04 279.113 31.04H276.281V34.688ZM299.94 39.92V44H287.796V26.96H299.724V31.04H292.476V33.44H298.668V37.232H292.476V39.92H299.94ZM314.26 39.92V44H302.116V26.96H314.044V31.04H306.796V33.44H312.988V37.232H306.796V39.92H314.26Z" fill="#2D3033"/>
</svg>
