<svg width="150" height="19" viewBox="0 0 150 19" fill="none" xmlns="http://www.w3.org/2000/svg">
<path d="M0.211594 9.336C0.211594 8.296 0.403594 7.28 0.787594 6.288C1.18759 5.28 1.76359 4.368 2.51559 3.552C3.26759 2.736 4.17959 2.088 5.25159 1.608C6.33959 1.112 7.56359 0.863999 8.92359 0.863999C10.5556 0.863999 11.9796 1.208 13.1956 1.896C14.4116 2.568 15.3156 3.464 15.9076 4.584L12.3316 7.128C12.1236 6.568 11.8196 6.136 11.4196 5.832C11.0356 5.528 10.6116 5.32 10.1476 5.208C9.69959 5.08 9.25959 5.016 8.82759 5.016C7.93159 5.016 7.19559 5.24 6.61959 5.688C6.05959 6.136 5.64359 6.704 5.37159 7.392C5.09959 8.064 4.96359 8.76 4.96359 9.48C4.96359 10.264 5.11559 11 5.41959 11.688C5.73959 12.376 6.18759 12.936 6.76359 13.368C7.35559 13.784 8.05959 13.992 8.87559 13.992C9.30759 13.992 9.74759 13.928 10.1956 13.8C10.6436 13.656 11.0516 13.432 11.4196 13.128C11.7876 12.824 12.0676 12.416 12.2596 11.904L16.0756 14.184C15.7396 15.016 15.1796 15.728 14.3956 16.32C13.6116 16.912 12.7236 17.368 11.7316 17.688C10.7396 17.992 9.75559 18.144 8.77959 18.144C7.51559 18.144 6.35559 17.896 5.29959 17.4C4.25959 16.888 3.35559 16.216 2.58759 15.384C1.83559 14.536 1.25159 13.592 0.835594 12.552C0.419594 11.496 0.211594 10.424 0.211594 9.336ZM17.7413 18V0.959999H22.4213V13.92H30.1493V18H17.7413ZM43.9244 13.92V18H31.7804V0.959999H43.7084V5.04H36.4604V7.44H42.6524V11.232H36.4604V13.92H43.9244ZM50.0367 0.959999H55.2687L60.6927 18H55.9407L54.9087 14.664H50.3727L49.3647 18H44.5887L50.0367 0.959999ZM54.1647 11.544L52.6527 5.544L51.0687 11.544H54.1647ZM66.7885 9.624V18H62.1085V0.959999H65.7565L72.5965 9.624V0.959999H77.2765V18H73.5565L66.7885 9.624ZM84.6569 9.336C84.6569 8.296 84.8489 7.28 85.2329 6.288C85.6329 5.28 86.2089 4.368 86.9609 3.552C87.7129 2.736 88.6249 2.088 89.6969 1.608C90.7849 1.112 92.0089 0.863999 93.3689 0.863999C95.0009 0.863999 96.4249 1.208 97.6409 1.896C98.8569 2.568 99.7609 3.464 100.353 4.584L96.7769 7.128C96.5689 6.568 96.2649 6.136 95.8649 5.832C95.4809 5.528 95.0569 5.32 94.5929 5.208C94.1449 5.08 93.7049 5.016 93.2729 5.016C92.3769 5.016 91.6409 5.24 91.0649 5.688C90.5049 6.136 90.0889 6.704 89.8169 7.392C89.5449 8.064 89.4089 8.76 89.4089 9.48C89.4089 10.264 89.5609 11 89.8649 11.688C90.1849 12.376 90.6329 12.936 91.2089 13.368C91.8009 13.784 92.5049 13.992 93.3209 13.992C93.7529 13.992 94.1929 13.928 94.6409 13.8C95.0889 13.656 95.4969 13.432 95.8649 13.128C96.2329 12.824 96.5129 12.416 96.7049 11.904L100.521 14.184C100.185 15.016 99.6249 15.728 98.8409 16.32C98.0569 16.912 97.1689 17.368 96.1769 17.688C95.1849 17.992 94.2009 18.144 93.2249 18.144C91.9609 18.144 90.8009 17.896 89.7449 17.4C88.7049 16.888 87.8009 16.216 87.0329 15.384C86.2809 14.536 85.6969 13.592 85.2809 12.552C84.8649 11.496 84.6569 10.424 84.6569 9.336ZM109.609 18.144C108.313 18.144 107.137 17.904 106.081 17.424C105.025 16.928 104.113 16.272 103.345 15.456C102.593 14.624 102.009 13.696 101.593 12.672C101.193 11.632 100.993 10.56 100.993 9.456C100.993 8.32 101.209 7.24 101.641 6.216C102.073 5.192 102.673 4.28 103.441 3.48C104.225 2.664 105.145 2.024 106.201 1.56C107.273 1.096 108.441 0.863999 109.705 0.863999C111.001 0.863999 112.177 1.112 113.233 1.608C114.289 2.088 115.193 2.744 115.945 3.576C116.697 4.408 117.273 5.344 117.673 6.384C118.089 7.408 118.297 8.464 118.297 9.552C118.297 10.672 118.081 11.744 117.649 12.768C117.233 13.792 116.633 14.712 115.849 15.528C115.081 16.328 114.169 16.968 113.113 17.448C112.057 17.912 110.889 18.144 109.609 18.144ZM105.745 9.504C105.745 10.256 105.881 10.976 106.153 11.664C106.441 12.352 106.873 12.912 107.449 13.344C108.041 13.776 108.777 13.992 109.657 13.992C110.569 13.992 111.305 13.768 111.865 13.32C112.441 12.872 112.865 12.304 113.137 11.616C113.409 10.912 113.545 10.192 113.545 9.456C113.545 8.688 113.401 7.968 113.113 7.296C112.825 6.624 112.393 6.08 111.817 5.664C111.241 5.232 110.513 5.016 109.633 5.016C108.737 5.016 108.001 5.24 107.425 5.688C106.849 6.12 106.425 6.68 106.153 7.368C105.881 8.04 105.745 8.752 105.745 9.504ZM120.28 18V0.959999H126.832C128.72 0.959999 130.296 1.344 131.56 2.112C132.84 2.864 133.8 3.888 134.44 5.184C135.096 6.464 135.424 7.888 135.424 9.456C135.424 11.184 135.064 12.688 134.344 13.968C133.64 15.248 132.64 16.24 131.344 16.944C130.064 17.648 128.56 18 126.832 18H120.28ZM130.672 9.456C130.672 8.128 130.328 7.064 129.64 6.264C128.968 5.448 128.032 5.04 126.832 5.04H124.96V13.92H126.832C128.064 13.92 129.008 13.496 129.664 12.648C130.336 11.8 130.672 10.736 130.672 9.456ZM149.604 13.92V18H137.46V0.959999H149.388V5.04H142.14V7.44H148.332V11.232H142.14V13.92H149.604Z" fill="#2D3033"/>
</svg>
