<svg width="370" height="72" viewBox="0 0 370 72" fill="none" xmlns="http://www.w3.org/2000/svg">
<path d="M98.3156 44V26.96H106.14C106.972 26.96 107.74 27.128 108.444 27.464C109.148 27.8 109.756 28.256 110.268 28.832C110.78 29.392 111.172 30.024 111.444 30.728C111.732 31.432 111.876 32.144 111.876 32.864C111.876 33.84 111.66 34.76 111.228 35.624C110.796 36.488 110.196 37.192 109.428 37.736L113.028 44H107.892L104.892 38.768H102.996V44H98.3156ZM102.996 34.688H105.948C106.236 34.688 106.5 34.528 106.74 34.208C106.996 33.888 107.124 33.44 107.124 32.864C107.124 32.272 106.98 31.824 106.692 31.52C106.404 31.2 106.116 31.04 105.828 31.04H102.996V34.688ZM126.655 39.92V44H114.511V26.96H126.439V31.04H119.191V33.44H125.383V37.232H119.191V39.92H126.655ZM132.767 26.96H137.999L143.423 44H138.671L137.639 40.664H133.103L132.095 44H127.319L132.767 26.96ZM136.895 37.544L135.383 31.544L133.799 37.544H136.895ZM144.839 44V26.96H151.391C153.279 26.96 154.855 27.344 156.119 28.112C157.399 28.864 158.359 29.888 158.999 31.184C159.655 32.464 159.983 33.888 159.983 35.456C159.983 37.184 159.623 38.688 158.903 39.968C158.199 41.248 157.199 42.24 155.903 42.944C154.623 43.648 153.119 44 151.391 44H144.839ZM155.231 35.456C155.231 34.128 154.887 33.064 154.199 32.264C153.527 31.448 152.591 31.04 151.391 31.04H149.519V39.92H151.391C152.623 39.92 153.567 39.496 154.223 38.648C154.895 37.8 155.231 36.736 155.231 35.456ZM164.42 26.96L167.468 33.92L170.588 26.96H175.676L169.796 38.36V44H165.14V38.312L159.356 26.96H164.42ZM194.041 31.04H189.145V44H184.465V31.04H179.545V26.96H194.041V31.04ZM203.167 44.144C201.871 44.144 200.695 43.904 199.639 43.424C198.583 42.928 197.671 42.272 196.903 41.456C196.151 40.624 195.567 39.696 195.151 38.672C194.751 37.632 194.551 36.56 194.551 35.456C194.551 34.32 194.767 33.24 195.199 32.216C195.631 31.192 196.231 30.28 196.999 29.48C197.783 28.664 198.703 28.024 199.759 27.56C200.831 27.096 201.999 26.864 203.263 26.864C204.559 26.864 205.735 27.112 206.791 27.608C207.847 28.088 208.751 28.744 209.503 29.576C210.255 30.408 210.831 31.344 211.231 32.384C211.647 33.408 211.855 34.464 211.855 35.552C211.855 36.672 211.639 37.744 211.207 38.768C210.791 39.792 210.191 40.712 209.407 41.528C208.639 42.328 207.727 42.968 206.671 43.448C205.615 43.912 204.447 44.144 203.167 44.144ZM199.303 35.504C199.303 36.256 199.439 36.976 199.711 37.664C199.999 38.352 200.431 38.912 201.007 39.344C201.599 39.776 202.335 39.992 203.215 39.992C204.127 39.992 204.863 39.768 205.423 39.32C205.999 38.872 206.423 38.304 206.695 37.616C206.967 36.912 207.103 36.192 207.103 35.456C207.103 34.688 206.959 33.968 206.671 33.296C206.383 32.624 205.951 32.08 205.375 31.664C204.799 31.232 204.071 31.016 203.191 31.016C202.295 31.016 201.559 31.24 200.983 31.688C200.407 32.12 199.983 32.68 199.711 33.368C199.439 34.04 199.303 34.752 199.303 35.504ZM229.55 32.528C229.55 32.528 229.414 32.448 229.142 32.288C228.87 32.128 228.51 31.952 228.062 31.76C227.614 31.552 227.126 31.368 226.598 31.208C226.07 31.048 225.55 30.968 225.038 30.968C224.638 30.968 224.31 31.032 224.054 31.16C223.798 31.288 223.67 31.504 223.67 31.808C223.67 32.256 223.95 32.576 224.51 32.768C225.086 32.944 225.862 33.192 226.838 33.512C227.894 33.832 228.806 34.2 229.574 34.616C230.342 35.032 230.934 35.568 231.35 36.224C231.766 36.864 231.974 37.72 231.974 38.792C231.974 39.816 231.79 40.68 231.422 41.384C231.054 42.072 230.558 42.624 229.934 43.04C229.31 43.456 228.614 43.76 227.846 43.952C227.078 44.128 226.294 44.216 225.494 44.216C224.678 44.216 223.822 44.136 222.926 43.976C222.046 43.8 221.19 43.568 220.358 43.28C219.526 42.976 218.766 42.624 218.078 42.224L220.094 38.12C220.094 38.12 220.254 38.216 220.574 38.408C220.894 38.6 221.318 38.816 221.846 39.056C222.374 39.296 222.958 39.512 223.598 39.704C224.254 39.896 224.91 39.992 225.566 39.992C226.078 39.992 226.43 39.928 226.622 39.8C226.83 39.656 226.934 39.472 226.934 39.248C226.934 38.912 226.758 38.656 226.406 38.48C226.054 38.288 225.59 38.112 225.014 37.952C224.454 37.776 223.83 37.576 223.142 37.352C221.638 36.84 220.542 36.232 219.854 35.528C219.166 34.808 218.822 33.824 218.822 32.576C218.822 31.312 219.118 30.256 219.71 29.408C220.302 28.56 221.078 27.92 222.038 27.488C223.014 27.04 224.062 26.816 225.182 26.816C226.014 26.816 226.814 26.92 227.582 27.128C228.366 27.32 229.094 27.56 229.766 27.848C230.454 28.136 231.054 28.408 231.566 28.664L229.55 32.528ZM249.114 26.96V44H244.434V37.328H238.722V44H234.042V26.96H238.722V33.248H244.434V26.96H249.114ZM252.042 44V26.96H256.722V44H252.042ZM259.659 44V26.96H267.003C267.835 26.96 268.603 27.128 269.307 27.464C270.011 27.8 270.619 28.256 271.131 28.832C271.643 29.392 272.035 30.024 272.307 30.728C272.595 31.432 272.739 32.144 272.739 32.864C272.739 33.872 272.499 34.824 272.019 35.72C271.555 36.616 270.899 37.352 270.051 37.928C269.219 38.488 268.243 38.768 267.123 38.768H264.339V44H259.659ZM264.339 34.688H266.811C267.099 34.688 267.363 34.56 267.603 34.304C267.859 34.032 267.987 33.552 267.987 32.864C267.987 32.16 267.843 31.68 267.555 31.424C267.267 31.168 266.979 31.04 266.691 31.04H264.339V34.688Z" fill="#2D3033"/>
</svg>
