<svg width="234" height="19" viewBox="0 0 234 19" fill="none" xmlns="http://www.w3.org/2000/svg">
<path d="M0.6515 18V0.959999H8.4755C9.3075 0.959999 10.0755 1.128 10.7795 1.464C11.4835 1.8 12.0915 2.256 12.6035 2.832C13.1155 3.392 13.5075 4.024 13.7795 4.728C14.0675 5.432 14.2115 6.144 14.2115 6.864C14.2115 7.84 13.9955 8.76 13.5635 9.624C13.1315 10.488 12.5315 11.192 11.7635 11.736L15.3635 18H10.2275L7.2275 12.768H5.3315V18H0.6515ZM5.3315 8.688H8.2835C8.5715 8.688 8.8355 8.528 9.0755 8.208C9.3315 7.888 9.4595 7.44 9.4595 6.864C9.4595 6.272 9.3155 5.824 9.0275 5.52C8.7395 5.2 8.4515 5.04 8.1635 5.04H5.3315V8.688ZM28.9908 13.92V18H16.8468V0.959999H28.7748V5.04H21.5268V7.44H27.7188V11.232H21.5268V13.92H28.9908ZM41.4871 6.528C41.4871 6.528 41.3511 6.448 41.0791 6.288C40.8071 6.128 40.4471 5.952 39.9991 5.76C39.5511 5.552 39.0631 5.368 38.5351 5.208C38.0071 5.048 37.4871 4.968 36.9751 4.968C36.5751 4.968 36.2471 5.032 35.9911 5.16C35.7351 5.288 35.6071 5.504 35.6071 5.808C35.6071 6.256 35.8871 6.576 36.4471 6.768C37.0231 6.944 37.7991 7.192 38.7751 7.512C39.8311 7.832 40.7431 8.2 41.5111 8.616C42.2791 9.032 42.8711 9.568 43.2871 10.224C43.7031 10.864 43.9111 11.72 43.9111 12.792C43.9111 13.816 43.7271 14.68 43.3591 15.384C42.9911 16.072 42.4951 16.624 41.8711 17.04C41.2471 17.456 40.5511 17.76 39.7831 17.952C39.0151 18.128 38.2311 18.216 37.4311 18.216C36.6151 18.216 35.7591 18.136 34.8631 17.976C33.9831 17.8 33.1271 17.568 32.2951 17.28C31.4631 16.976 30.7031 16.624 30.0151 16.224L32.0311 12.12C32.0311 12.12 32.1911 12.216 32.5111 12.408C32.8311 12.6 33.2551 12.816 33.7831 13.056C34.3111 13.296 34.8951 13.512 35.5351 13.704C36.1911 13.896 36.8471 13.992 37.5031 13.992C38.0151 13.992 38.3671 13.928 38.5591 13.8C38.7671 13.656 38.8711 13.472 38.8711 13.248C38.8711 12.912 38.6951 12.656 38.3431 12.48C37.9911 12.288 37.5271 12.112 36.9511 11.952C36.3911 11.776 35.7671 11.576 35.0791 11.352C33.5751 10.84 32.4791 10.232 31.7911 9.528C31.1031 8.808 30.7591 7.824 30.7591 6.576C30.7591 5.312 31.0551 4.256 31.6471 3.408C32.2391 2.56 33.0151 1.92 33.9751 1.488C34.9511 1.04 35.9991 0.816 37.1191 0.816C37.9511 0.816 38.7511 0.92 39.5191 1.128C40.3031 1.32 41.0311 1.56 41.7031 1.848C42.3911 2.136 42.9911 2.408 43.5031 2.664L41.4871 6.528ZM45.9796 18V0.959999H53.3236C54.1556 0.959999 54.9236 1.128 55.6276 1.464C56.3316 1.8 56.9396 2.256 57.4516 2.832C57.9636 3.392 58.3556 4.024 58.6276 4.728C58.9156 5.432 59.0596 6.144 59.0596 6.864C59.0596 7.872 58.8196 8.824 58.3396 9.72C57.8756 10.616 57.2196 11.352 56.3716 11.928C55.5396 12.488 54.5636 12.768 53.4436 12.768H50.6596V18H45.9796ZM50.6596 8.688H53.1316C53.4196 8.688 53.6836 8.56 53.9236 8.304C54.1796 8.032 54.3076 7.552 54.3076 6.864C54.3076 6.16 54.1636 5.68 53.8756 5.424C53.5876 5.168 53.2996 5.04 53.0116 5.04H50.6596V8.688ZM68.6128 18.144C67.3168 18.144 66.1408 17.904 65.0848 17.424C64.0288 16.928 63.1168 16.272 62.3488 15.456C61.5968 14.624 61.0128 13.696 60.5968 12.672C60.1968 11.632 59.9968 10.56 59.9968 9.456C59.9968 8.32 60.2128 7.24 60.6448 6.216C61.0768 5.192 61.6768 4.28 62.4448 3.48C63.2288 2.664 64.1488 2.024 65.2048 1.56C66.2768 1.096 67.4448 0.863999 68.7088 0.863999C70.0048 0.863999 71.1808 1.112 72.2368 1.608C73.2928 2.088 74.1968 2.744 74.9488 3.576C75.7008 4.408 76.2768 5.344 76.6768 6.384C77.0928 7.408 77.3008 8.464 77.3008 9.552C77.3008 10.672 77.0848 11.744 76.6528 12.768C76.2368 13.792 75.6368 14.712 74.8528 15.528C74.0848 16.328 73.1728 16.968 72.1168 17.448C71.0608 17.912 69.8928 18.144 68.6128 18.144ZM64.7488 9.504C64.7488 10.256 64.8848 10.976 65.1568 11.664C65.4448 12.352 65.8768 12.912 66.4528 13.344C67.0448 13.776 67.7808 13.992 68.6608 13.992C69.5728 13.992 70.3088 13.768 70.8688 13.32C71.4448 12.872 71.8688 12.304 72.1407 11.616C72.4128 10.912 72.5488 10.192 72.5488 9.456C72.5488 8.688 72.4048 7.968 72.1168 7.296C71.8288 6.624 71.3968 6.08 70.8208 5.664C70.2448 5.232 69.5168 5.016 68.6368 5.016C67.7408 5.016 67.0048 5.24 66.4288 5.688C65.8528 6.12 65.4288 6.68 65.1568 7.368C64.8848 8.04 64.7488 8.752 64.7488 9.504ZM83.9643 9.624V18H79.2843V0.959999H82.9323L89.7723 9.624V0.959999H94.4523V18H90.7323L83.9643 9.624ZM107.698 6.528C107.698 6.528 107.562 6.448 107.29 6.288C107.018 6.128 106.658 5.952 106.21 5.76C105.762 5.552 105.274 5.368 104.746 5.208C104.218 5.048 103.698 4.968 103.186 4.968C102.786 4.968 102.458 5.032 102.202 5.16C101.946 5.288 101.818 5.504 101.818 5.808C101.818 6.256 102.098 6.576 102.658 6.768C103.234 6.944 104.01 7.192 104.986 7.512C106.042 7.832 106.954 8.2 107.722 8.616C108.49 9.032 109.082 9.568 109.498 10.224C109.914 10.864 110.122 11.72 110.122 12.792C110.122 13.816 109.938 14.68 109.57 15.384C109.202 16.072 108.706 16.624 108.082 17.04C107.458 17.456 106.762 17.76 105.994 17.952C105.226 18.128 104.442 18.216 103.642 18.216C102.826 18.216 101.97 18.136 101.074 17.976C100.194 17.8 99.3381 17.568 98.5061 17.28C97.6741 16.976 96.9141 16.624 96.2261 16.224L98.2421 12.12C98.2421 12.12 98.4021 12.216 98.7221 12.408C99.0421 12.6 99.4661 12.816 99.9941 13.056C100.522 13.296 101.106 13.512 101.746 13.704C102.402 13.896 103.058 13.992 103.714 13.992C104.226 13.992 104.578 13.928 104.77 13.8C104.978 13.656 105.082 13.472 105.082 13.248C105.082 12.912 104.906 12.656 104.554 12.48C104.202 12.288 103.738 12.112 103.162 11.952C102.602 11.776 101.978 11.576 101.29 11.352C99.7861 10.84 98.6901 10.232 98.0021 9.528C97.3141 8.808 96.9701 7.824 96.9701 6.576C96.9701 5.312 97.2661 4.256 97.8581 3.408C98.4501 2.56 99.2261 1.92 100.186 1.488C101.162 1.04 102.21 0.816 103.33 0.816C104.162 0.816 104.962 0.92 105.73 1.128C106.514 1.32 107.242 1.56 107.914 1.848C108.602 2.136 109.202 2.408 109.714 2.664L107.698 6.528ZM112.191 18V0.959999H116.871V18H112.191ZM123.096 0.959999L126.432 12.6L129.72 0.959999H134.64L128.76 18H124.104L118.152 0.959999H123.096ZM148.077 13.92V18H135.933V0.959999H147.861V5.04H140.613V7.44H146.805V11.232H140.613V13.92H148.077ZM155.644 18V0.959999H163.468C164.3 0.959999 165.068 1.128 165.772 1.464C166.476 1.8 167.084 2.256 167.596 2.832C168.108 3.392 168.5 4.024 168.772 4.728C169.06 5.432 169.204 6.144 169.204 6.864C169.204 7.84 168.988 8.76 168.556 9.624C168.124 10.488 167.524 11.192 166.756 11.736L170.356 18H165.22L162.22 12.768H160.324V18H155.644ZM160.324 8.688H163.276C163.564 8.688 163.828 8.528 164.068 8.208C164.324 7.888 164.452 7.44 164.452 6.864C164.452 6.272 164.308 5.824 164.02 5.52C163.732 5.2 163.444 5.04 163.156 5.04H160.324V8.688ZM183.983 13.92V18H171.839V0.959999H183.767V5.04H176.519V7.44H182.711V11.232H176.519V13.92H183.983ZM190.095 0.959999H195.327L200.751 18H195.999L194.967 14.664H190.431L189.423 18H184.647L190.095 0.959999ZM194.223 11.544L192.711 5.544L191.127 11.544H194.223ZM202.167 18V0.959999H208.719C210.607 0.959999 212.183 1.344 213.447 2.112C214.727 2.864 215.687 3.888 216.327 5.184C216.983 6.464 217.311 7.888 217.311 9.456C217.311 11.184 216.951 12.688 216.231 13.968C215.527 15.248 214.527 16.24 213.231 16.944C211.951 17.648 210.447 18 208.719 18H202.167ZM212.559 9.456C212.559 8.128 212.215 7.064 211.527 6.264C210.855 5.448 209.919 5.04 208.719 5.04H206.847V13.92H208.719C209.951 13.92 210.895 13.496 211.551 12.648C212.223 11.8 212.559 10.736 212.559 9.456ZM221.748 0.959999L224.796 7.92L227.916 0.959999H233.004L227.124 12.36V18H222.468V12.312L216.684 0.959999H221.748Z" fill="#2D3033"/>
</svg>
